<svg width="26" height="26" viewBox="0 0 26 26" fill="none" xmlns="http://www.w3.org/2000/svg">
<g clip-path="url(#clip0_749_1489)">
<path d="M9.75002 25.0715C10.3483 25.0715 10.8334 24.6558 10.8334 24.1429C10.8334 23.6301 10.3483 23.2144 9.75002 23.2144C9.15172 23.2144 8.66669 23.6301 8.66669 24.1429C8.66669 24.6558 9.15172 25.0715 9.75002 25.0715Z" stroke="#333232" stroke-linecap="round" stroke-linejoin="round"/>
<path d="M21.6666 25.0715C22.265 25.0715 22.75 24.6558 22.75 24.1429C22.75 23.6301 22.265 23.2144 21.6666 23.2144C21.0683 23.2144 20.5833 23.6301 20.5833 24.1429C20.5833 24.6558 21.0683 25.0715 21.6666 25.0715Z" stroke="#333232" stroke-linecap="round" stroke-linejoin="round"/>
<path d="M1.08331 0.928467H5.41665L8.31998 15.8484C8.41904 16.3614 8.69038 16.8222 9.08649 17.1502C9.48259 17.4781 9.97824 17.6524 10.4866 17.6423H21.0166C21.5251 17.6524 22.0207 17.4781 22.4169 17.1502C22.8129 16.8222 23.0843 16.3614 23.1833 15.8484L24.9166 6.49976H6.49998" stroke="#333232" stroke-linecap="round" stroke-linejoin="round"/>
</g>
<defs>
<clipPath id="clip0_749_1489">
<rect width="26" height="26" fill="white"/>
</clipPath>
</defs>
</svg>
